# xmcd CD database file
#
# Track frame offsets:
#	183
#	15490
#	30263
#	45230
#	60983
#	75883
#	90815
#	106315
#	121018
#	137025
#	152688
#	168743
#	190730
#	203313
#	217585
#	228670
#	243988
#	259438
#	270828
#	285043
#	298118
#	314475
#
# Disc length: 4299 seconds
#
# Revision: 6
# Processed by: cddbd v1.5.1PL2 Copyright (c) Steve Scherf et al.
# Submitted via: CDex 1.51
#
DISCID=0610c916
DTITLE=Glenn Miller - Big Band Bash
DYEAR=1944
DGENRE=Jazz
TTITLE0=Moonlight Serenade
TTITLE1=Pennsylvania 6-5000
TTITLE2=American Patrol
TTITLE3=Tuxedo Junction
TTITLE4=I've Got A Gal In Kalamazoo
TTITLE5=A String Of Pearls
TTITLE6=Song Of The Volga Boatmen
TTITLE7=Perfidia
TTITLE8=In The Mood
TTITLE9=Chattanooga Choo Choo
TTITLE10=St. Louis Blues March
TTITLE11=Anvil Chorus
TTITLE12=Johnson Rag
TTITLE13=My Melancholy Baby
TTITLE14=Sun Valley Jump
TTITLE15=Sunrise Serenade
TTITLE16=Serenade In Blue
TTITLE17=The Jumpin' Jive
TTITLE18=Farewell Blues
TTITLE19=Little Brown Jug
TTITLE20=Hallelujah!
TTITLE21=Under A Blanket Of Blue
EXTD=YEAR: 1944
EXTT0=
EXTT1=
EXTT2=
EXTT3=
EXTT4=
EXTT5=
EXTT6=
EXTT7=
EXTT8=
EXTT9=
EXTT10=
EXTT11=
EXTT12=
EXTT13=
EXTT14=
EXTT15=
EXTT16=
EXTT17=
EXTT18=
EXTT19=
EXTT20=
EXTT21=
PLAYORDER=
